<svg width="45" height="37" viewBox="0 0 45 37" fill="none" xmlns="http://www.w3.org/2000/svg">
<path fill-rule="evenodd" clip-rule="evenodd" d="M27 18.1431H36C40.9706 18.1431 45 22.1725 45 27.1431C45 32.1136 40.9706 36.1431 36 36.1431H27C22.0294 36.1431 18 32.1136 18 27.1431C18 22.1725 22.0294 18.1431 27 18.1431Z" fill="url(#paint0_linear_1203_28)"/>
<path fill-rule="evenodd" clip-rule="evenodd" d="M27 0.143066H36C40.9706 0.143066 45 4.1725 45 9.14307C45 14.1136 40.9706 18.1431 36 18.1431H27C22.0294 18.1431 18 14.1136 18 9.14307C18 4.1725 22.0294 0.143066 27 0.143066Z" fill="url(#paint1_linear_1203_28)"/>
<circle cx="9" cy="27.1431" r="9" fill="url(#paint2_linear_1203_28)"/>
<circle cx="9" cy="9.14307" r="9" fill="url(#paint3_linear_1203_28)"/>
<defs>
<linearGradient id="paint0_linear_1203_28" x1="21.3245" y1="20.2918" x2="43.4984" y2="24.6936" gradientUnits="userSpaceOnUse">
<stop stop-color="#11B4E1"/>
<stop offset="1" stop-color="#02A3CF"/>
</linearGradient>
<linearGradient id="paint1_linear_1203_28" x1="20.9742" y1="16.051" x2="41.6631" y2="2.38023" gradientUnits="userSpaceOnUse">
<stop stop-color="#35C7F0"/>
<stop offset="1" stop-color="#1AC2F0"/>
</linearGradient>
<linearGradient id="paint2_linear_1203_28" x1="2.49812" y1="33.5825" x2="15.3177" y2="20.9654" gradientUnits="userSpaceOnUse">
<stop stop-color="#0097C1"/>
<stop offset="1" stop-color="#08ADDB"/>
</linearGradient>
<linearGradient id="paint3_linear_1203_28" x1="2.54235" y1="2.79489" x2="15.2806" y2="15.4464" gradientUnits="userSpaceOnUse">
<stop stop-color="#37D8ED"/>
<stop offset="1" stop-color="#4DE6FA"/>
</linearGradient>
</defs>
</svg>
